<svg width="146" height="50" viewBox="0 0 146 50" fill="none" xmlns="http://www.w3.org/2000/svg">
<rect width="146" height="50" rx="10" fill="#4F7B8E"/>
<path d="M61.5028 31V19.48H62.9268V24.888L67.9668 19.48H69.7588L64.5268 25.072L70.1668 31H68.3268L62.9268 25.368V31H61.5028ZM73.7401 31.24C73.0947 31.24 72.5534 31.1227 72.1161 30.888C71.6841 30.648 71.3561 30.3333 71.1321 29.944C70.9134 29.5547 70.8041 29.128 70.8041 28.664C70.8041 28.2107 70.8894 27.8187 71.0601 27.488C71.2361 27.152 71.4814 26.8747 71.7961 26.656C72.1107 26.432 72.4867 26.256 72.9241 26.128C73.3347 26.016 73.7934 25.92 74.3001 25.84C74.8121 25.7547 75.3294 25.6773 75.8521 25.608C76.3747 25.5387 76.8627 25.472 77.3161 25.408L76.8041 25.704C76.8201 24.936 76.6654 24.368 76.3401 24C76.0201 23.632 75.4654 23.448 74.6761 23.448C74.1534 23.448 73.6947 23.568 73.3001 23.808C72.9107 24.0427 72.6361 24.4267 72.4761 24.96L71.1241 24.552C71.3321 23.7947 71.7347 23.2 72.3321 22.768C72.9294 22.336 73.7161 22.12 74.6921 22.12C75.4761 22.12 76.1481 22.2613 76.7081 22.544C77.2734 22.8213 77.6787 23.2427 77.9241 23.808C78.0467 24.0747 78.1241 24.3653 78.1561 24.68C78.1881 24.9893 78.2041 25.3147 78.2041 25.656V31H76.9401V28.928L77.2361 29.12C76.9107 29.8187 76.4547 30.3467 75.8681 30.704C75.2867 31.0613 74.5774 31.24 73.7401 31.24ZM73.9561 30.048C74.4681 30.048 74.9107 29.9573 75.2841 29.776C75.6627 29.5893 75.9667 29.3467 76.1961 29.048C76.4254 28.744 76.5747 28.4133 76.6441 28.056C76.7241 27.7893 76.7667 27.4933 76.7721 27.168C76.7827 26.8373 76.7881 26.584 76.7881 26.408L77.2841 26.624C76.8201 26.688 76.3641 26.7493 75.9161 26.808C75.4681 26.8667 75.0441 26.9307 74.6441 27C74.2441 27.064 73.8841 27.1413 73.5641 27.232C73.3294 27.3067 73.1081 27.4027 72.9001 27.52C72.6974 27.6373 72.5321 27.7893 72.4041 27.976C72.2814 28.1573 72.2201 28.384 72.2201 28.656C72.2201 28.8907 72.2787 29.1147 72.3961 29.328C72.5187 29.5413 72.7054 29.7147 72.9561 29.848C73.2121 29.9813 73.5454 30.048 73.9561 30.048ZM82.5721 31V23.656H79.5641V22.36H87.0041V23.656H83.9961V31H82.5721ZM90.6932 31.24C90.0479 31.24 89.5065 31.1227 89.0692 30.888C88.6372 30.648 88.3092 30.3333 88.0852 29.944C87.8665 29.5547 87.7572 29.128 87.7572 28.664C87.7572 28.2107 87.8425 27.8187 88.0132 27.488C88.1892 27.152 88.4345 26.8747 88.7492 26.656C89.0639 26.432 89.4399 26.256 89.8772 26.128C90.2879 26.016 90.7465 25.92 91.2532 25.84C91.7652 25.7547 92.2825 25.6773 92.8052 25.608C93.3279 25.5387 93.8159 25.472 94.2692 25.408L93.7572 25.704C93.7732 24.936 93.6185 24.368 93.2932 24C92.9732 23.632 92.4185 23.448 91.6292 23.448C91.1065 23.448 90.6479 23.568 90.2532 23.808C89.8639 24.0427 89.5892 24.4267 89.4292 24.96L88.0772 24.552C88.2852 23.7947 88.6879 23.2 89.2852 22.768C89.8825 22.336 90.6692 22.12 91.6452 22.12C92.4292 22.12 93.1012 22.2613 93.6612 22.544C94.2265 22.8213 94.6319 23.2427 94.8772 23.808C94.9999 24.0747 95.0772 24.3653 95.1092 24.68C95.1412 24.9893 95.1572 25.3147 95.1572 25.656V31H93.8932V28.928L94.1892 29.12C93.8639 29.8187 93.4079 30.3467 92.8212 30.704C92.2399 31.0613 91.5305 31.24 90.6932 31.24ZM90.9092 30.048C91.4212 30.048 91.8639 29.9573 92.2372 29.776C92.6159 29.5893 92.9199 29.3467 93.1492 29.048C93.3785 28.744 93.5279 28.4133 93.5972 28.056C93.6772 27.7893 93.7199 27.4933 93.7252 27.168C93.7359 26.8373 93.7412 26.584 93.7412 26.408L94.2372 26.624C93.7732 26.688 93.3172 26.7493 92.8692 26.808C92.4212 26.8667 91.9972 26.9307 91.5972 27C91.1972 27.064 90.8372 27.1413 90.5172 27.232C90.2825 27.3067 90.0612 27.4027 89.8532 27.52C89.6505 27.6373 89.4852 27.7893 89.3572 27.976C89.2345 28.1573 89.1732 28.384 89.1732 28.656C89.1732 28.8907 89.2319 29.1147 89.3492 29.328C89.4719 29.5413 89.6585 29.7147 89.9092 29.848C90.1652 29.9813 90.4985 30.048 90.9092 30.048ZM96.4372 31V29.776C96.7572 29.8347 96.9999 29.824 97.1652 29.744C97.3359 29.6587 97.4612 29.512 97.5412 29.304C97.6265 29.0907 97.6959 28.824 97.7492 28.504C97.8399 27.9973 97.9172 27.432 97.9812 26.808C98.0505 26.184 98.1119 25.5013 98.1652 24.76C98.2239 24.0133 98.2772 23.2133 98.3252 22.36H104.365V31H102.941V23.712H99.6212C99.5892 24.2027 99.5492 24.7067 99.5012 25.224C99.4585 25.7413 99.4132 26.2453 99.3652 26.736C99.3172 27.2213 99.2639 27.6747 99.2052 28.096C99.1519 28.512 99.0932 28.872 99.0292 29.176C98.9279 29.6987 98.7865 30.1173 98.6052 30.432C98.4239 30.7413 98.1625 30.9413 97.8212 31.032C97.4799 31.128 97.0185 31.1173 96.4372 31ZM110.292 31.24C109.434 31.24 108.692 31.0453 108.068 30.656C107.45 30.2667 106.972 29.728 106.636 29.04C106.3 28.352 106.132 27.5627 106.132 26.672C106.132 25.7653 106.303 24.9707 106.644 24.288C106.986 23.6053 107.468 23.0747 108.092 22.696C108.716 22.312 109.45 22.12 110.292 22.12C111.156 22.12 111.9 22.3147 112.524 22.704C113.148 23.088 113.626 23.624 113.956 24.312C114.292 24.9947 114.46 25.7813 114.46 26.672C114.46 27.5733 114.292 28.368 113.956 29.056C113.62 29.7387 113.14 30.2747 112.516 30.664C111.892 31.048 111.151 31.24 110.292 31.24ZM110.292 29.888C111.188 29.888 111.855 29.5893 112.292 28.992C112.73 28.3947 112.948 27.6213 112.948 26.672C112.948 25.696 112.727 24.92 112.284 24.344C111.842 23.7627 111.178 23.472 110.292 23.472C109.69 23.472 109.194 23.608 108.804 23.88C108.415 24.152 108.124 24.528 107.932 25.008C107.74 25.488 107.644 26.0427 107.644 26.672C107.644 27.6427 107.868 28.4213 108.316 29.008C108.764 29.5947 109.423 29.888 110.292 29.888ZM116.222 31V22.36H122.222V23.712H117.646V31H116.222Z" fill="white"/>
<path d="M45.9167 32L35.5 32" stroke="white" stroke-width="1.5" stroke-linecap="round"/>
<path d="M45.9167 25L35.5 25" stroke="white" stroke-width="1.5" stroke-linecap="round"/>
<path d="M45.9167 18L35.5 18" stroke="white" stroke-width="1.5" stroke-linecap="round"/>
<ellipse cx="29.2497" cy="18" rx="1.04167" ry="1" stroke="white"/>
<ellipse cx="29.2497" cy="25" rx="1.04167" ry="1" stroke="white"/>
<ellipse cx="29.2497" cy="32" rx="1.04167" ry="1" stroke="white"/>
</svg>
