<svg width="105" height="50" viewBox="0 0 105 50" fill="none" xmlns="http://www.w3.org/2000/svg">
<rect width="105" height="50" rx="10" fill="#4F7B8E"/>
<path fill-rule="evenodd" clip-rule="evenodd" d="M51.5 15.75C46.6675 15.75 42.75 19.6675 42.75 24.5C42.75 29.3325 46.6675 33.25 51.5 33.25C56.3325 33.25 60.25 29.3325 60.25 24.5C60.25 19.6675 56.3325 15.75 51.5 15.75ZM41.25 24.5C41.25 18.8391 45.8391 14.25 51.5 14.25C57.1609 14.25 61.75 18.8391 61.75 24.5C61.75 27.0605 60.8111 29.4017 59.2589 31.1982L62.5303 34.4697C62.8232 34.7626 62.8232 35.2374 62.5303 35.5303C62.2374 35.8232 61.7626 35.8232 61.4697 35.5303L58.1982 32.2589C56.4017 33.8111 54.0605 34.75 51.5 34.75C45.8391 34.75 41.25 30.1609 41.25 24.5Z" fill="white"/>
</svg>
