<svg width="50" height="50" viewBox="0 0 50 50" fill="none" xmlns="http://www.w3.org/2000/svg">
<path fill-rule="evenodd" clip-rule="evenodd" d="M24.9998 45.8332C13.4939 45.8332 4.1665 36.5058 4.1665 24.9998C4.1665 13.4939 13.4939 4.1665 24.9998 4.1665C36.5058 4.1665 45.8332 13.4939 45.8332 24.9998C45.8332 36.5058 36.5058 45.8332 24.9998 45.8332ZM24.0214 17.645C23.4112 17.0348 22.4218 17.0348 21.8116 17.645L15.5617 23.895C14.9515 24.5052 14.9515 25.4945 15.5617 26.1047L21.8116 32.3547C22.4218 32.9649 23.4112 32.9649 24.0214 32.3547C24.6316 31.7445 24.6316 30.7552 24.0214 30.145L20.4387 26.5623H33.3332C34.1961 26.5623 34.8957 25.8628 34.8957 24.9998C34.8957 24.1369 34.1961 23.4373 33.3332 23.4373H20.4387L24.0214 19.8547C24.6316 19.2445 24.6316 18.2552 24.0214 17.645Z" fill="#4F7B8E"/>
</svg>
