<svg width="15" height="15" viewBox="0 0 15 15" fill="none" xmlns="http://www.w3.org/2000/svg">
<path d="M13.0884 5.118C13.4509 5.47629 13.6069 5.92741 13.6798 6.46319C13.75 6.97925 13.75 7.6354 13.75 8.44945V8.51477C13.75 9.32882 13.75 9.98497 13.6798 10.501C13.6069 11.0368 13.4509 11.4879 13.0884 11.8462C12.7258 12.2045 12.2692 12.3586 11.727 12.4306C11.2047 12.5 10.5407 12.5 9.71686 12.5H6.63875C5.81492 12.5 5.15088 12.5 4.62862 12.4306C4.0864 12.3586 3.62986 12.2045 3.26726 11.8462C3.04728 11.6289 2.90335 11.3773 2.80788 11.0935C3.35254 11.1609 4.02637 11.1608 4.80492 11.1608H7.93587C8.7369 11.1608 9.42708 11.1609 9.97978 11.0874C10.5721 11.0088 11.1399 10.8313 11.6004 10.3762C12.0609 9.92118 12.2405 9.36015 12.3202 8.77486C12.3945 8.22873 12.3944 7.54675 12.3944 6.75524V6.63769C12.3944 5.8682 12.3945 5.20223 12.3262 4.66396C12.6136 4.7583 12.8683 4.90055 13.0884 5.118Z" fill="#4F7B8E"/>
<path d="M6.37039 5.65478C5.78818 5.65478 5.31619 6.12116 5.31619 6.69646C5.31619 7.27176 5.78818 7.73813 6.37039 7.73813C6.95261 7.73813 7.42459 7.27176 7.42459 6.69646C7.42459 6.12116 6.95261 5.65478 6.37039 5.65478Z" fill="#4F7B8E"/>
<path fill-rule="evenodd" clip-rule="evenodd" d="M1.77932 3.64803C1.25 4.17106 1.25 5.01286 1.25 6.69646C1.25 8.38006 1.25 9.22186 1.77932 9.74489C2.30863 10.2679 3.16055 10.2679 4.86439 10.2679H7.87639C9.58023 10.2679 10.4322 10.2679 10.9615 9.74489C11.4908 9.22186 11.4908 8.38006 11.4908 6.69646C11.4908 5.01286 11.4908 4.17106 10.9615 3.64803C10.4322 3.125 9.58023 3.125 7.87639 3.125H4.86439C3.16055 3.125 2.30863 3.125 1.77932 3.64803ZM4.4126 6.69646C4.4126 5.62804 5.28913 4.76192 6.37039 4.76192C7.45165 4.76192 8.32819 5.62804 8.32819 6.69646C8.32819 7.76488 7.45165 8.631 6.37039 8.631C5.28913 8.631 4.4126 7.76488 4.4126 6.69646ZM9.68359 8.33338C9.43407 8.33338 9.23179 8.1335 9.23179 7.88694V5.50597C9.23179 5.25941 9.43407 5.05954 9.68359 5.05954C9.93311 5.05954 10.1354 5.25941 10.1354 5.50597V7.88694C10.1354 8.1335 9.93311 8.33338 9.68359 8.33338ZM2.6054 7.88694C2.6054 8.1335 2.80768 8.33338 3.0572 8.33338C3.30672 8.33338 3.509 8.1335 3.509 7.88694V5.50597C3.509 5.25941 3.30672 5.05954 3.0572 5.05954C2.80768 5.05954 2.6054 5.25941 2.6054 5.50597L2.6054 7.88694Z" fill="#4F7B8E"/>
</svg>
