<svg width="15" height="15" viewBox="0 0 15 15" fill="none" xmlns="http://www.w3.org/2000/svg">
<path d="M10.9861 2.7697L9.73607 2.11373C8.6388 1.53791 8.09017 1.25 7.5 1.25C6.90983 1.25 6.3612 1.53791 5.26393 2.11373L5.06286 2.21925L10.6398 5.40605L13.1502 4.15083C12.7463 3.69343 12.0947 3.35146 10.9861 2.7697Z" fill="#4F7B8E"/>
<path d="M13.5927 4.97772L11.0938 6.2272V8.125C11.0938 8.38388 10.8839 8.59375 10.625 8.59375C10.3661 8.59375 10.1562 8.38388 10.1562 8.125V6.69595L7.96875 7.7897V13.69C8.41745 13.5783 8.92797 13.3103 9.73606 12.8863L10.9861 12.2303C12.3309 11.5246 13.0033 11.1717 13.3766 10.5377C13.75 9.90359 13.75 9.11458 13.75 7.53656V7.46344C13.75 6.28053 13.75 5.54098 13.5927 4.97772Z" fill="#4F7B8E"/>
<path d="M7.03125 13.69V7.7897L1.40727 4.97772C1.25 5.54098 1.25 6.28053 1.25 7.46344V7.53656C1.25 9.11458 1.25 9.90359 1.62337 10.5377C1.99674 11.1717 2.66914 11.5246 4.01392 12.2303L5.26393 12.8863C6.07202 13.3103 6.58255 13.5783 7.03125 13.69Z" fill="#4F7B8E"/>
<path d="M1.84981 4.15083L7.5 6.97592L9.63197 5.90994L4.07785 2.73616L4.01393 2.7697C2.90534 3.35146 2.25369 3.69343 1.84981 4.15083Z" fill="#4F7B8E"/>
</svg>
