<svg width="15" height="15" viewBox="0 0 15 15" fill="none" xmlns="http://www.w3.org/2000/svg">
<path d="M4.84375 1.5625C4.84375 1.30362 4.63388 1.09375 4.375 1.09375C4.11612 1.09375 3.90625 1.30362 3.90625 1.5625V2.54954C3.00667 2.62157 2.41611 2.79836 1.98223 3.23223C1.54836 3.66611 1.37157 4.25667 1.29954 5.15625H13.7005C13.6284 4.25667 13.4516 3.66611 13.0178 3.23223C12.5839 2.79836 11.9933 2.62157 11.0938 2.54954V1.5625C11.0938 1.30362 10.8839 1.09375 10.625 1.09375C10.3661 1.09375 10.1562 1.30362 10.1562 1.5625V2.50806C9.74046 2.5 9.2744 2.5 8.75 2.5H6.25C5.7256 2.5 5.25954 2.5 4.84375 2.50806V1.5625Z" fill="#4F7B8E"/>
<path fill-rule="evenodd" clip-rule="evenodd" d="M1.25 7.5C1.25 6.9756 1.25 6.50954 1.25806 6.09375H13.7419C13.75 6.50954 13.75 6.9756 13.75 7.5V8.75C13.75 11.107 13.75 12.2855 13.0178 13.0178C12.2855 13.75 11.107 13.75 8.75 13.75H6.25C3.89298 13.75 2.71447 13.75 1.98223 13.0178C1.25 12.2855 1.25 11.107 1.25 8.75V7.5ZM10.625 8.75C10.9702 8.75 11.25 8.47018 11.25 8.125C11.25 7.77982 10.9702 7.5 10.625 7.5C10.2798 7.5 10 7.77982 10 8.125C10 8.47018 10.2798 8.75 10.625 8.75ZM10.625 11.25C10.9702 11.25 11.25 10.9702 11.25 10.625C11.25 10.2798 10.9702 10 10.625 10C10.2798 10 10 10.2798 10 10.625C10 10.9702 10.2798 11.25 10.625 11.25ZM8.125 8.125C8.125 8.47018 7.84518 8.75 7.5 8.75C7.15482 8.75 6.875 8.47018 6.875 8.125C6.875 7.77982 7.15482 7.5 7.5 7.5C7.84518 7.5 8.125 7.77982 8.125 8.125ZM8.125 10.625C8.125 10.9702 7.84518 11.25 7.5 11.25C7.15482 11.25 6.875 10.9702 6.875 10.625C6.875 10.2798 7.15482 10 7.5 10C7.84518 10 8.125 10.2798 8.125 10.625ZM4.375 8.75C4.72018 8.75 5 8.47018 5 8.125C5 7.77982 4.72018 7.5 4.375 7.5C4.02982 7.5 3.75 7.77982 3.75 8.125C3.75 8.47018 4.02982 8.75 4.375 8.75ZM4.375 11.25C4.72018 11.25 5 10.9702 5 10.625C5 10.2798 4.72018 10 4.375 10C4.02982 10 3.75 10.2798 3.75 10.625C3.75 10.9702 4.02982 11.25 4.375 11.25Z" fill="#4F7B8E"/>
</svg>
