<svg width="20" height="20" viewBox="0 0 20 20" fill="none" xmlns="http://www.w3.org/2000/svg">
<path fill-rule="evenodd" clip-rule="evenodd" d="M1.07423 2.30228C1.18339 1.97482 1.53734 1.79784 1.8648 1.907L2.11846 1.99155C2.64044 2.16552 3.08154 2.31254 3.4284 2.4739C3.7971 2.64542 4.11701 2.858 4.35959 3.19456C4.60217 3.53112 4.70268 3.90184 4.7488 4.30586C4.77236 4.51218 4.78312 4.74352 4.78804 4.99993H13.7093C15.4218 4.99993 16.2781 4.99993 16.6486 5.56181C17.0191 6.1237 16.6818 6.91071 16.0072 8.48472L15.6501 9.31806C15.3351 10.0529 15.1776 10.4204 14.8645 10.6268C14.5515 10.8333 14.1517 10.8333 13.3522 10.8333H4.91983C5.00732 11.2832 5.14535 11.5464 5.34134 11.7424C5.57197 11.9731 5.89578 12.1234 6.50726 12.2056C7.13672 12.2903 7.97098 12.2916 9.16716 12.2916H15.0005C15.3457 12.2916 15.6255 12.5714 15.6255 12.9166C15.6255 13.2618 15.3457 13.5416 15.0005 13.5416H9.12143C7.98178 13.5416 7.06317 13.5416 6.3407 13.4445C5.59061 13.3436 4.95905 13.1279 4.45745 12.6263C3.95586 12.1247 3.74011 11.4931 3.63926 10.7431C3.54213 10.0206 3.54214 9.10198 3.54216 7.96232L3.54216 5.73579C3.54216 5.14163 3.54122 4.74849 3.50687 4.44765C3.47435 4.16277 3.41756 4.02537 3.34554 3.92545C3.27352 3.82553 3.16113 3.7282 2.90116 3.60727C2.62662 3.47955 2.25395 3.35433 1.69028 3.16644L1.46952 3.09285C1.14205 2.9837 0.96508 2.62975 1.07423 2.30228ZM6.66716 6.87493C6.32198 6.87493 6.04216 7.15475 6.04216 7.49993C6.04216 7.8451 6.32198 8.12493 6.66716 8.12493H9.16716C9.51234 8.12493 9.79216 7.8451 9.79216 7.49993C9.79216 7.15475 9.51234 6.87493 9.16716 6.87493H6.66716Z" fill="#4F7B8E"/>
<path d="M6.25033 15C6.94068 15 7.50033 15.5596 7.50033 16.25C7.50033 16.9403 6.94068 17.5 6.25033 17.5C5.55997 17.5 5.00033 16.9403 5.00033 16.25C5.00033 15.5596 5.55997 15 6.25033 15Z" fill="#4F7B8E"/>
<path d="M13.7503 15C14.4407 15 15.0003 15.5597 15.0003 16.25C15.0003 16.9404 14.4407 17.5 13.7503 17.5C13.06 17.5 12.5003 16.9404 12.5003 16.25C12.5003 15.5597 13.06 15 13.7503 15Z" fill="#4F7B8E"/>
</svg>
