<svg width="50" height="50" viewBox="0 0 50 50" fill="none" xmlns="http://www.w3.org/2000/svg">
<path fill-rule="evenodd" clip-rule="evenodd" d="M45.8332 25.0003C45.8332 36.5063 36.5058 45.8337 24.9998 45.8337C13.4939 45.8337 4.1665 36.5063 4.1665 25.0003C4.1665 13.4944 13.4939 4.16699 24.9998 4.16699C36.5058 4.16699 45.8332 13.4944 45.8332 25.0003ZM18.6866 18.6871C19.2968 18.0769 20.2861 18.0769 20.8963 18.6871L24.9998 22.7906L29.1032 18.6871C29.7134 18.0769 30.7027 18.0769 31.3129 18.6871C31.9231 19.2973 31.9231 20.2867 31.3129 20.8968L27.2095 25.0003L31.3129 29.1037C31.9231 29.7139 31.9231 30.7032 31.3129 31.3134C30.7027 31.9236 29.7134 31.9236 29.1032 31.3134L24.9998 27.21L20.8963 31.3135C20.2861 31.9237 19.2968 31.9237 18.6866 31.3135C18.0764 30.7033 18.0764 29.714 18.6866 29.1038L22.7901 25.0003L18.6866 20.8968C18.0764 20.2866 18.0764 19.2973 18.6866 18.6871Z" fill="#4F7B8E"/>
</svg>
