<svg width="33" height="33" viewBox="0 0 33 33" fill="none" xmlns="http://www.w3.org/2000/svg">
<path d="M30.2497 17.4595C30.2476 19.4802 30.2322 21.1977 30.1174 22.607C29.9842 24.2423 29.7111 25.6088 29.1 26.7437C28.8304 27.2443 28.4992 27.6926 28.0959 28.0959C26.9514 29.2404 25.4932 29.7589 23.6453 30.0073C21.8399 30.25 19.526 30.25 16.5734 30.25H16.4266C13.474 30.25 11.1601 30.25 9.35474 30.0073C7.50682 29.7589 6.04865 29.2404 4.90413 28.0959C3.88947 27.0812 3.36549 25.8183 3.08684 24.2517C2.81312 22.7128 2.76305 20.7981 2.75265 18.4205C2.75 17.8157 2.75 17.1761 2.75 16.5013V16.4266C2.74998 13.474 2.74997 11.1601 2.9927 9.35474C3.24115 7.50682 3.7596 6.04865 4.90413 4.90413C6.04865 3.7596 7.50682 3.24115 9.35474 2.9927C10.9603 2.77684 13.026 2.75296 15.5403 2.75032C16.0701 2.74977 16.5 3.17949 16.5 3.7093C16.5 4.23911 16.0699 4.6684 15.5401 4.66896C12.9903 4.67165 11.0928 4.69489 9.61039 4.8942C7.97522 5.11404 6.98942 5.53216 6.26079 6.26079C5.53216 6.98942 5.11404 7.97522 4.8942 9.61039C4.67064 11.2732 4.66861 13.4581 4.66861 16.5C4.66861 16.8715 4.66861 17.2307 4.66904 17.5786L5.94957 16.4581C7.11514 15.4383 8.87184 15.4968 9.96699 16.5919L15.4539 22.0788C16.3329 22.9578 17.7166 23.0776 18.7336 22.3629L19.115 22.0948C20.5786 21.0662 22.5587 21.1854 23.8884 22.3821L27.5088 25.6405C27.8732 24.8752 28.0896 23.8696 28.2051 22.4512C28.314 21.1146 28.329 19.4913 28.3311 17.4596C28.3316 16.9298 28.7609 16.5 29.2907 16.5C29.8205 16.5 30.2502 16.9297 30.2497 17.4595Z" fill="#4F7B8E"/>
<path fill-rule="evenodd" clip-rule="evenodd" d="M24.0625 15.125C21.1457 15.125 19.6873 15.125 18.7811 14.2189C17.875 13.3127 17.875 11.8543 17.875 8.9375C17.875 6.02069 17.875 4.56228 18.7811 3.65614C19.6873 2.75 21.1457 2.75 24.0625 2.75C26.9793 2.75 28.4377 2.75 29.3439 3.65614C30.25 4.56228 30.25 6.02069 30.25 8.9375C30.25 11.8543 30.25 13.3127 29.3439 14.2189C28.4377 15.125 26.9793 15.125 24.0625 15.125ZM27.1041 5.89592C27.632 6.42382 27.632 7.27972 27.1041 7.80761L27.0246 7.88713C26.9478 7.96386 26.8406 7.99863 26.7338 7.97946C26.6667 7.9674 26.5684 7.94505 26.4512 7.90438C26.2168 7.82305 25.9091 7.66947 25.6198 7.3802C25.3305 7.09093 25.1769 6.78321 25.0956 6.5488C25.055 6.43158 25.0326 6.33335 25.0205 6.26616C25.0014 6.15935 25.0361 6.05217 25.1129 5.97544L25.1924 5.89592C25.7203 5.36803 26.5762 5.36803 27.1041 5.89592ZM23.8563 11.0554C23.6579 11.2538 23.5587 11.353 23.4493 11.4383C23.3203 11.539 23.1807 11.6252 23.033 11.6956C22.9077 11.7553 22.7747 11.7997 22.5085 11.8884L21.1048 12.3563C20.9738 12.3999 20.8294 12.3659 20.7318 12.2682C20.6341 12.1706 20.6001 12.0262 20.6437 11.8952L21.1116 10.4915C21.2003 10.2254 21.2447 10.0923 21.3044 9.96704C21.3748 9.81933 21.461 9.67972 21.5617 9.55069C21.647 9.44132 21.7462 9.34213 21.9446 9.14375L24.418 6.67034C24.4778 6.61054 24.5808 6.63791 24.6085 6.71781C24.7098 7.00976 24.8999 7.38954 25.2552 7.7448C25.6105 8.10006 25.9902 8.29023 26.2822 8.39152C26.3621 8.41924 26.3895 8.52223 26.3297 8.58203L23.8563 11.0554Z" fill="#4F7B8E"/>
</svg>
