<svg width="15" height="15" viewBox="0 0 15 15" fill="none" xmlns="http://www.w3.org/2000/svg">
<path fill-rule="evenodd" clip-rule="evenodd" d="M7.5 1.25C4.73858 1.25 2.5 3.75161 2.5 6.5625C2.5 9.35136 4.09583 12.3828 6.58567 13.5465C7.16609 13.8178 7.83391 13.8178 8.41433 13.5465C10.9042 12.3828 12.5 9.35136 12.5 6.5625C12.5 3.75161 10.2614 1.25 7.5 1.25ZM7.5 7.5C8.19036 7.5 8.75 6.94036 8.75 6.25C8.75 5.55964 8.19036 5 7.5 5C6.80964 5 6.25 5.55964 6.25 6.25C6.25 6.94036 6.80964 7.5 7.5 7.5Z" fill="#4F7B8E"/>
</svg>
