<svg width="28" height="28" viewBox="0 0 28 28" fill="none" xmlns="http://www.w3.org/2000/svg">
<path fill-rule="evenodd" clip-rule="evenodd" d="M13.9997 25.6663C20.443 25.6663 25.6663 20.443 25.6663 13.9997C25.6663 7.55635 20.443 2.33301 13.9997 2.33301C7.55635 2.33301 2.33301 7.55635 2.33301 13.9997C2.33301 20.443 7.55635 25.6663 13.9997 25.6663ZM13.9997 11.3747C14.2317 11.3747 14.4543 11.4669 14.6184 11.631L18.1184 15.131C18.4601 15.4727 18.4601 16.0267 18.1184 16.3684C17.7767 16.7101 17.2227 16.7101 16.881 16.3684L13.9997 13.4871L11.1184 16.3684C10.7767 16.7101 10.2227 16.7101 9.88096 16.3684C9.53925 16.0267 9.53925 15.4727 9.88096 15.131L13.381 11.631C13.5451 11.4669 13.7676 11.3747 13.9997 11.3747Z" fill="#4F7B8E"/>
</svg>
