<svg width="28" height="28" viewBox="0 0 28 28" fill="none" xmlns="http://www.w3.org/2000/svg">
<path fill-rule="evenodd" clip-rule="evenodd" d="M13.9997 25.6663C20.443 25.6663 25.6663 20.443 25.6663 13.9997C25.6663 7.55635 20.443 2.33301 13.9997 2.33301C7.55635 2.33301 2.33301 7.55635 2.33301 13.9997C2.33301 20.443 7.55635 25.6663 13.9997 25.6663ZM18.1184 11.631C18.4601 11.9727 18.4601 12.5267 18.1184 12.8684L14.6184 16.3684C14.4543 16.5325 14.2317 16.6247 13.9997 16.6247C13.7676 16.6247 13.5451 16.5325 13.381 16.3684L9.88096 12.8684C9.53925 12.5267 9.53925 11.9727 9.88096 11.631C10.2227 11.2892 10.7767 11.2892 11.1184 11.631L13.9997 14.5122L16.881 11.631C17.2227 11.2892 17.7767 11.2892 18.1184 11.631Z" fill="#4F7B8E"/>
</svg>
