<svg width="29" height="29" viewBox="0 0 29 29" fill="none" xmlns="http://www.w3.org/2000/svg">
<rect width="29" height="29" rx="5" fill="#4F7B8E"/>
<path d="M8 11.2572C8 10.9343 8.23025 10.6724 8.51429 10.6724L10.2904 10.6721C10.6433 10.662 10.9547 10.4068 11.0748 10.0293C11.0779 10.0194 11.0815 10.0072 11.0946 9.96275L11.1711 9.70163C11.2179 9.54152 11.2587 9.40204 11.3158 9.27737C11.5414 8.78482 11.9587 8.4428 12.441 8.35523C12.563 8.33307 12.6923 8.33316 12.8407 8.33327H15.1594C15.3078 8.33316 15.4371 8.33307 15.5591 8.35523C16.0414 8.4428 16.4587 8.78482 16.6843 9.27737C16.7414 9.40204 16.7822 9.54152 16.829 9.70163L16.9055 9.96275C16.9186 10.0072 16.9222 10.0194 16.9254 10.0293C17.0454 10.4068 17.4185 10.6623 17.7714 10.6724H19.4857C19.7697 10.6724 20 10.9343 20 11.2572C20 11.5802 19.7697 11.842 19.4857 11.842H8.51429C8.23025 11.842 8 11.5802 8 11.2572Z" fill="white"/>
<path fill-rule="evenodd" clip-rule="evenodd" d="M13.7304 21.6667H14.2696C16.1247 21.6667 17.0523 21.6667 17.6554 21.0761C18.2585 20.4854 18.3202 19.5166 18.4436 17.579L18.6214 14.7871C18.6884 13.7357 18.7219 13.2101 18.4193 12.877C18.1167 12.5439 17.6058 12.5439 16.584 12.5439H11.416C10.3942 12.5439 9.88325 12.5439 9.5807 12.877C9.27815 13.2101 9.31163 13.7357 9.37858 14.7871L9.55639 17.579C9.6798 19.5166 9.7415 20.4854 10.3446 21.0761C10.9477 21.6667 11.8753 21.6667 13.7304 21.6667ZM12.8309 15.1257C12.8034 14.8364 12.5584 14.6254 12.2836 14.6543C12.0088 14.6832 11.8083 14.9412 11.8358 15.2304L12.1691 18.7392C12.1966 19.0284 12.4416 19.2394 12.7164 19.2105C12.9912 19.1816 13.1917 18.9237 13.1642 18.6344L12.8309 15.1257ZM15.7164 14.6543C15.9912 14.6832 16.1917 14.9412 16.1642 15.2304L15.8309 18.7392C15.8034 19.0284 15.5584 19.2394 15.2836 19.2105C15.0088 19.1816 14.8083 18.9237 14.8358 18.6344L15.1691 15.1257C15.1966 14.8364 15.4416 14.6254 15.7164 14.6543Z" fill="white"/>
</svg>
