<svg width="16" height="16" viewBox="0 0 16 16" fill="none" xmlns="http://www.w3.org/2000/svg">
<path d="M2 4.25748C2 3.93451 2.23025 3.67269 2.51429 3.67269L4.29045 3.67237C4.64335 3.66221 4.95468 3.40705 5.07476 3.02957C5.07792 3.01965 5.08155 3.00741 5.09457 2.96299L5.1711 2.70187C5.21793 2.54177 5.25874 2.40229 5.31583 2.27761C5.54139 1.78507 5.95872 1.44304 6.44098 1.35547C6.56305 1.33331 6.69232 1.3334 6.84071 1.33351H9.15941C9.30779 1.3334 9.43707 1.33331 9.55914 1.35547C10.0414 1.44304 10.4587 1.78507 10.6843 2.27761C10.7414 2.40229 10.7822 2.54177 10.829 2.70187L10.9055 2.96299C10.9186 3.00741 10.9222 3.01965 10.9254 3.02957C11.0454 3.40705 11.4185 3.66252 11.7714 3.67269H13.4857C13.7697 3.67269 14 3.93451 14 4.25748C14 4.58045 13.7697 4.84227 13.4857 4.84227H2.51429C2.23025 4.84227 2 4.58045 2 4.25748Z" fill="#757575"/>
<path fill-rule="evenodd" clip-rule="evenodd" d="M7.7304 14.6669H8.2696C10.1247 14.6669 11.0523 14.6669 11.6554 14.0763C12.2585 13.4857 12.3202 12.5169 12.4436 10.5793L12.6214 7.78732C12.6884 6.73599 12.7219 6.21032 12.4193 5.87722C12.1167 5.54411 11.6058 5.54411 10.584 5.54411H5.41603C4.39418 5.54411 3.88325 5.54411 3.5807 5.87722C3.27815 6.21032 3.31163 6.73599 3.37858 7.78732L3.55639 10.5792C3.6798 12.5169 3.7415 13.4857 4.34459 14.0763C4.94769 14.6669 5.87526 14.6669 7.7304 14.6669ZM6.83085 8.1259C6.80337 7.83667 6.55835 7.62564 6.28358 7.65457C6.00881 7.68349 5.80834 7.94141 5.83581 8.23064L6.16915 11.7394C6.19662 12.0286 6.44165 12.2397 6.71642 12.2107C6.99119 12.1818 7.19166 11.9239 7.16419 11.6347L6.83085 8.1259ZM9.71642 7.65457C9.99119 7.68349 10.1917 7.94141 10.1642 8.23064L9.83085 11.7394C9.80338 12.0286 9.55835 12.2397 9.28358 12.2107C9.00881 12.1818 8.80834 11.9239 8.83581 11.6347L9.16915 8.1259C9.19663 7.83667 9.44165 7.62564 9.71642 7.65457Z" fill="#757575"/>
</svg>
